<svg width="25" height="24" viewBox="0 0 25 24" fill="none" xmlns="http://www.w3.org/2000/svg">
<path d="M21.5 12C21.5 14.3 20.6 16.4 19.2 18C19.1 18.1 19 18.2 18.9 18.4C17.2 20 15 21 12.5 21C10 21 7.8 20 6.1 18.4C6 18.3 5.9 18.2 5.8 18C4.4 16.4 3.5 14.3 3.5 12C3.5 7 7.5 3 12.5 3C15 3 17.2 4 18.9 5.6C20.5 7.3 21.5 9.5 21.5 12ZM18.9 17.6C17.2 16 15 15 12.5 15C9.8 15 7.4 16.2 5.8 18C5.9 18.1 6 18.2 6.1 18.4C7.8 20 10 21 12.5 21C15 21 17.2 20 18.9 18.4C19 18.3 19.1 18.2 19.2 18C19.1 17.9 19 17.8 18.9 17.6ZM12.5 7C11.1 7 10 8.1 10 9.5C10 10.9 11.1 12 12.5 12C13.9 12 15 10.9 15 9.5C15 8.1 13.9 7 12.5 7Z" stroke="#0B0A1C" stroke-width="1.5" stroke-linecap="round" stroke-linejoin="round"/>
</svg>
