<svg width="24" height="24" viewBox="0 0 24 24" fill="none" xmlns="http://www.w3.org/2000/svg">
<path fill-rule="evenodd" clip-rule="evenodd" d="M16.5001 2.25C16.0246 2.24984 15.5548 2.35402 15.124 2.55519C14.6932 2.75636 14.3117 3.04962 14.0065 3.41428C13.7014 3.77894 13.48 4.20611 13.3579 4.66567C13.2358 5.12523 13.2161 5.60598 13.3001 6.074L8.57007 9.386L8.50207 9.439C8.02221 9.06388 7.44659 8.83116 6.84085 8.76737C6.23512 8.70358 5.62365 8.8113 5.07617 9.07823C4.5287 9.34516 4.06725 9.76057 3.74445 10.2771C3.42165 10.7936 3.25049 11.3904 3.25049 11.9995C3.25049 12.6086 3.42165 13.2054 3.74445 13.7219C4.06725 14.2384 4.5287 14.6538 5.07617 14.9208C5.62365 15.1877 6.23512 15.2954 6.84085 15.2316C7.44659 15.1678 8.02221 14.9351 8.50207 14.56L8.57007 14.614L13.3001 17.926C13.2667 18.1127 13.2501 18.304 13.2501 18.5C13.2502 19.2705 13.5241 20.0159 14.0228 20.6031C14.5215 21.1904 15.2127 21.5815 15.9729 21.7064C16.7332 21.8314 17.5132 21.6822 18.1736 21.2854C18.8341 20.8887 19.3321 20.2702 19.5789 19.5403C19.8256 18.8104 19.8051 18.0166 19.5208 17.3004C19.2366 16.5843 18.7071 15.9925 18.027 15.6305C17.3468 15.2685 16.5602 15.1599 15.8074 15.3241C15.0546 15.4883 14.3847 15.9146 13.9171 16.527L9.43807 13.39C9.63807 12.968 9.75007 12.497 9.75007 11.999C9.75007 11.501 9.63807 11.029 9.43807 10.608L13.9181 7.472C14.2535 7.91147 14.6956 8.25809 15.2024 8.47908C15.7091 8.70007 16.2639 8.78812 16.8142 8.73491C17.3645 8.6817 17.8922 8.48898 18.3472 8.17498C18.8023 7.86098 19.1697 7.43609 19.4148 6.94049C19.6598 6.44489 19.7744 5.89496 19.7476 5.34274C19.7209 4.79051 19.5537 4.25424 19.2619 3.78465C18.9701 3.31506 18.5633 2.92767 18.08 2.65913C17.5967 2.39059 17.0529 2.24977 16.5001 2.25ZM14.7501 5.5C14.7501 5.03587 14.9344 4.59075 15.2626 4.26256C15.5908 3.93437 16.0359 3.75 16.5001 3.75C16.9642 3.75 17.4093 3.93437 17.7375 4.26256C18.0657 4.59075 18.2501 5.03587 18.2501 5.5C18.2501 5.96413 18.0657 6.40925 17.7375 6.73744C17.4093 7.06563 16.9642 7.25 16.5001 7.25C16.0359 7.25 15.5908 7.06563 15.2626 6.73744C14.9344 6.40925 14.7501 5.96413 14.7501 5.5ZM6.50007 10.25C6.03594 10.25 5.59082 10.4344 5.26264 10.7626C4.93445 11.0908 4.75007 11.5359 4.75007 12C4.75007 12.4641 4.93445 12.9092 5.26264 13.2374C5.59082 13.5656 6.03594 13.75 6.50007 13.75C6.9642 13.75 7.40932 13.5656 7.73751 13.2374C8.0657 12.9092 8.25007 12.4641 8.25007 12C8.25007 11.5359 8.0657 11.0908 7.73751 10.7626C7.40932 10.4344 6.9642 10.25 6.50007 10.25ZM16.5001 16.75C16.0359 16.75 15.5908 16.9344 15.2626 17.2626C14.9344 17.5908 14.7501 18.0359 14.7501 18.5C14.7501 18.9641 14.9344 19.4092 15.2626 19.7374C15.5908 20.0656 16.0359 20.25 16.5001 20.25C16.9642 20.25 17.4093 20.0656 17.7375 19.7374C18.0657 19.4092 18.2501 18.9641 18.2501 18.5C18.2501 18.0359 18.0657 17.5908 17.7375 17.2626C17.4093 16.9344 16.9642 16.75 16.5001 16.75Z" fill="#B9B9B9"/>
</svg>
