<svg width="24" height="24" viewBox="0 0 24 24" fill="none" xmlns="http://www.w3.org/2000/svg">
<path d="M12 3C17 3 21 7 21 12C21 17 17 21 12 21C7 21 3 17 3 12C3 7 7 3 12 3Z" stroke="white" stroke-width="1.5" stroke-linecap="round" stroke-linejoin="round"/>
<path d="M12 15C11.4 15 11 15.4 11 16C11 16.6 11.4 17 12 17C12.6 17 13 16.6 13 16C13 15.4 12.6 15 12 15Z" fill="white"/>
<path d="M12 13C13.4 13 14.5 11.9 14.5 10.5C14.5 9.1 13.4 8 12 8C10.6 8 9.5 9.1 9.5 10.5" stroke="white" stroke-width="1.5" stroke-linecap="round" stroke-linejoin="round"/>
</svg>
