<svg width="25" height="24" viewBox="0 0 25 24" fill="none" xmlns="http://www.w3.org/2000/svg">
<path fill-rule="evenodd" clip-rule="evenodd" d="M6.75 5.50001C6.74993 4.83164 6.95593 4.1795 7.33993 3.63245C7.72393 3.08539 8.26725 2.67004 8.89587 2.44297C9.52449 2.2159 10.2078 2.18817 10.8528 2.36354C11.4977 2.53892 12.0729 2.90888 12.5 3.42301C13.0438 2.7615 13.8267 2.34134 14.6785 2.25384C15.5303 2.16634 16.3823 2.41856 17.0492 2.9557C17.7161 3.49284 18.1441 4.27148 18.2401 5.1224C18.3361 5.97333 18.0924 6.82776 17.562 7.50001H18.5C18.8283 7.50001 19.1534 7.56467 19.4567 7.69031C19.76 7.81595 20.0356 8.0001 20.2678 8.23224C20.4999 8.46439 20.6841 8.73999 20.8097 9.0433C20.9353 9.34661 21 9.6717 21 10V11.25C21 11.4489 20.921 11.6397 20.7803 11.7803C20.6397 11.921 20.4489 12 20.25 12H13.55C13.5106 12 13.4716 11.9923 13.4352 11.9772C13.3988 11.9621 13.3657 11.94 13.3379 11.9121C13.31 11.8843 13.2879 11.8512 13.2728 11.8148C13.2578 11.7784 13.25 11.7394 13.25 11.7V8.24001C12.9677 8.05843 12.7148 7.83486 12.5 7.57701C12.2851 7.83451 12.0322 8.05774 11.75 8.23901V11.7C11.75 11.7796 11.7184 11.8559 11.6621 11.9121C11.6059 11.9684 11.5296 12 11.45 12H4.75C4.55109 12 4.36032 11.921 4.21967 11.7803C4.07902 11.6397 4 11.4489 4 11.25V10C4 9.6717 4.06466 9.34661 4.1903 9.0433C4.31594 8.73999 4.50009 8.46439 4.73223 8.23224C4.96438 8.0001 5.23998 7.81595 5.54329 7.69031C5.84661 7.56467 6.1717 7.50001 6.5 7.50001H7.438C6.9914 6.92907 6.74916 6.22487 6.75 5.50001ZM11.75 5.50001C11.75 5.03588 11.5656 4.59076 11.2374 4.26257C10.9092 3.93438 10.4641 3.75001 10 3.75001C9.53587 3.75001 9.09075 3.93438 8.76256 4.26257C8.43437 4.59076 8.25 5.03588 8.25 5.50001C8.25 5.96414 8.43437 6.40926 8.76256 6.73745C9.09075 7.06563 9.53587 7.25001 10 7.25001C10.4641 7.25001 10.9092 7.06563 11.2374 6.73745C11.5656 6.40926 11.75 5.96414 11.75 5.50001ZM13.25 5.50001C13.25 5.72982 13.2953 5.95739 13.3832 6.16971C13.4712 6.38202 13.6001 6.57494 13.7626 6.73745C13.9251 6.89995 14.118 7.02885 14.3303 7.1168C14.5426 7.20474 14.7702 7.25001 15 7.25001C15.2298 7.25001 15.4574 7.20474 15.6697 7.1168C15.882 7.02885 16.0749 6.89995 16.2374 6.73745C16.3999 6.57494 16.5288 6.38202 16.6168 6.16971C16.7047 5.95739 16.75 5.72982 16.75 5.50001C16.75 5.03588 16.5656 4.59076 16.2374 4.26257C15.9092 3.93438 15.4641 3.75001 15 3.75001C14.5359 3.75001 14.0908 3.93438 13.7626 4.26257C13.4344 4.59076 13.25 5.03588 13.25 5.50001Z" fill="white"/>
<path d="M11.75 13.6501C11.75 13.5705 11.7184 13.4942 11.6621 13.438C11.6059 13.3817 11.5296 13.3501 11.45 13.3501H6.14901C5.95254 13.3497 5.76231 13.4191 5.61216 13.5458C5.46201 13.6725 5.36168 13.8484 5.32901 14.0421C5.10709 15.338 5.10709 16.6622 5.32901 17.9581L5.55301 19.2671C5.62689 19.6959 5.83791 20.0891 6.15437 20.3877C6.47084 20.6864 6.87566 20.8742 7.30801 20.9231L8.37301 21.0421C9.39501 21.1561 10.4187 21.2278 11.444 21.2571C11.4838 21.2579 11.5234 21.2508 11.5604 21.2361C11.5975 21.2214 11.6312 21.1996 11.6597 21.1717C11.6882 21.1439 11.7108 21.1107 11.7263 21.074C11.7418 21.0373 11.7499 20.9979 11.75 20.9581V13.6501ZM13.556 21.2571C13.5162 21.2579 13.4766 21.2508 13.4396 21.2361C13.4026 21.2214 13.3688 21.1996 13.3403 21.1717C13.3119 21.1439 13.2892 21.1107 13.2737 21.074C13.2582 21.0373 13.2501 20.9979 13.25 20.9581V13.6501C13.25 13.5705 13.2816 13.4942 13.3379 13.438C13.3941 13.3817 13.4704 13.3501 13.55 13.3501H18.851C19.257 13.3501 19.603 13.6421 19.671 14.0421C19.894 15.3381 19.894 16.6621 19.671 17.9581L19.448 19.2671C19.3741 19.696 19.1629 20.0894 18.8463 20.388C18.5296 20.6867 18.1245 20.8744 17.692 20.9231L16.627 21.0421C15.6068 21.1563 14.5822 21.2281 13.556 21.2571Z" fill="white"/>
</svg>
